# xmcd CD database file
# Copyright (C) 1993-1998 Ti Kan
#
# Track frame offsets:
#	150
#	18272
#	33475
#	46410
#	62210
#	75037
#	86877
#	101375
#	116997
#	130872
#	144065
#	156425
#	170235
#	185052
#	205417
#	218312
#	237720
#	256342
#	267765
#	284030
#
# Disc length: 3955 seconds
#
# Revision: 1
# Processed by: cddbd v1.4b41PL1 Copyright (c) Steve Scherf et al.
# Submitted via: CDValet v3.31 - Copyright (c) 1997 Greg Leichner
#
DISCID=250f7114
DTITLE=Mick Lloyd's Nashville Music Machine - The Best of Count
DTITLE=ry Line Dancing [CD3 of 3)
DYEAR=1900
DGENRE=
TTITLE0=All My Rowdy Friends (Have Settled Down)
TTITLE1=Friends In Low Places
TTITLE2=If Bubba Can Dance (I Can Too)
TTITLE3=A Jukebox With A Country Song
TTITLE4=If The Devil Danced (In Empty Pockets)
TTITLE5=The Whiskey Ain't Workin'
TTITLE6=Bubba Shot The Jukebox
TTITLE7=Fast As You
TTITLE8=Guitars And Cadillacs
TTITLE9=Indian Outlaw
TTITLE10=A Good Run Of Bad Luck
TTITLE11=Thinkin' Problem
TTITLE12=You Can't Keep A Good Man Down
TTITLE13=(If You're Not In It For Love) I'm Outta Here
TTITLE14=Down On The Farm
TTITLE15=You're Gonna Miss Me When I'm Gone
TTITLE16=Neon Moon
TTITLE17=So Much For Pretending
TTITLE18=He Thinks He'll Keep Her
TTITLE19=I'm In A Hurry (And I Don't Know Why)
EXTD=
EXTT0=
EXTT1=
EXTT2=
EXTT3=
EXTT4=
EXTT5=
EXTT6=
EXTT7=
EXTT8=
EXTT9=
EXTT10=
EXTT11=
EXTT12=
EXTT13=
EXTT14=
EXTT15=
EXTT16=
EXTT17=
EXTT18=
EXTT19=
PLAYORDER=
